<svg width="284" height="60" viewBox="0 0 284 60" fill="none" xmlns="http://www.w3.org/2000/svg">
<path d="M102.659 21.256L102.587 22.168L102.491 22.264C102.235 22.264 101.995 22.28 101.771 22.312C101.547 22.328 101.355 22.392 101.195 22.504C101.051 22.616 100.915 22.76 100.787 22.936C100.675 23.112 100.619 23.424 100.619 23.872C100.603 24.064 100.587 24.248 100.571 24.424C100.571 24.584 100.563 24.776 100.547 25C100.547 25.224 100.547 25.496 100.547 25.816C100.547 26.136 100.547 26.544 100.547 27.04V31.456C100.547 32.032 100.547 32.52 100.547 32.92C100.547 33.304 100.539 33.632 100.523 33.904C100.523 34.176 100.523 34.416 100.523 34.624C100.523 34.816 100.523 35 100.523 35.176C100.507 36.936 100.187 38.248 99.5628 39.112C98.9388 39.976 98.0508 40.496 96.8988 40.672C96.7228 40.704 96.5308 40.72 96.3228 40.72C96.1308 40.736 95.9548 40.744 95.7948 40.744L95.6028 40.672L95.5548 39.424L95.6508 39.304C95.7308 39.304 95.8908 39.296 96.1308 39.28C96.3708 39.28 96.5308 39.28 96.6108 39.28C96.8988 39.28 97.1228 39.168 97.2828 38.944C97.4588 38.72 97.5868 38.464 97.6668 38.176C97.7148 37.984 97.7548 37.648 97.7868 37.168C97.8188 36.688 97.8428 36.144 97.8588 35.536C97.8748 34.928 97.8828 34.304 97.8828 33.664C97.8828 33.024 97.8828 32.448 97.8828 31.936V27.064C97.8828 26.584 97.8828 26.176 97.8828 25.84C97.8828 25.504 97.8748 25.216 97.8588 24.976C97.8588 24.736 97.8508 24.536 97.8348 24.376C97.8348 24.2 97.8268 24.032 97.8108 23.872C97.7788 23.44 97.7068 23.128 97.5948 22.936C97.4828 22.744 97.3628 22.6 97.2348 22.504C97.0908 22.376 96.9068 22.304 96.6828 22.288C96.4588 22.272 96.2188 22.264 95.9628 22.264L95.8428 22.168L95.7708 21.256L95.8188 21.16C95.9308 21.16 96.1148 21.168 96.3708 21.184C96.6268 21.2 96.8908 21.216 97.1628 21.232C97.4348 21.248 97.6988 21.264 97.9548 21.28C98.2108 21.296 98.3948 21.304 98.5068 21.304H99.9228C100.035 21.304 100.219 21.296 100.475 21.28C100.731 21.264 100.995 21.248 101.267 21.232C101.539 21.216 101.803 21.2 102.059 21.184C102.315 21.168 102.499 21.16 102.611 21.16L102.659 21.256ZM120.436 21.256L120.364 22.168L120.268 22.264C120.044 22.264 119.804 22.28 119.548 22.312C119.308 22.328 119.116 22.392 118.972 22.504C118.844 22.616 118.716 22.76 118.588 22.936C118.476 23.112 118.404 23.424 118.372 23.872C118.372 24.064 118.364 24.256 118.348 24.448C118.348 24.64 118.34 24.872 118.324 25.144C118.324 25.416 118.324 25.744 118.324 26.128C118.324 26.512 118.324 26.984 118.324 27.544V31.672C118.324 32.456 118.188 33.192 117.916 33.88C117.66 34.552 117.276 35.144 116.764 35.656C116.252 36.152 115.612 36.544 114.844 36.832C114.092 37.12 113.228 37.264 112.252 37.264C111.052 37.264 110.044 37.12 109.228 36.832C108.428 36.544 107.788 36.152 107.308 35.656C106.828 35.144 106.484 34.552 106.276 33.88C106.068 33.192 105.964 32.456 105.964 31.672V27.544C105.964 26.984 105.964 26.512 105.964 26.128C105.964 25.744 105.964 25.416 105.964 25.144C105.964 24.872 105.956 24.64 105.94 24.448C105.94 24.256 105.932 24.064 105.916 23.872C105.884 23.44 105.804 23.128 105.676 22.936C105.564 22.744 105.444 22.6 105.316 22.504C105.172 22.376 104.988 22.304 104.764 22.288C104.54 22.272 104.3 22.264 104.044 22.264L103.924 22.168L103.852 21.256L103.9 21.16C104.012 21.16 104.196 21.168 104.452 21.184C104.708 21.2 104.972 21.216 105.244 21.232C105.516 21.248 105.78 21.264 106.036 21.28C106.292 21.296 106.476 21.304 106.588 21.304H108.004C108.116 21.304 108.3 21.296 108.556 21.28C108.812 21.264 109.076 21.248 109.348 21.232C109.62 21.216 109.884 21.2 110.14 21.184C110.396 21.168 110.58 21.16 110.692 21.16L110.74 21.256L110.668 22.168L110.572 22.264C110.348 22.264 110.108 22.28 109.852 22.312C109.612 22.328 109.42 22.392 109.276 22.504C109.148 22.616 109.028 22.76 108.916 22.936C108.804 23.112 108.732 23.424 108.7 23.872C108.684 24.096 108.668 24.304 108.652 24.496C108.652 24.688 108.644 24.912 108.628 25.168C108.628 25.424 108.628 25.736 108.628 26.104C108.628 26.472 108.628 26.944 108.628 27.52V31C108.628 32.488 108.916 33.552 109.492 34.192C110.084 34.816 110.988 35.128 112.204 35.128C112.748 35.128 113.252 35.056 113.716 34.912C114.18 34.752 114.58 34.504 114.916 34.168C115.252 33.832 115.516 33.408 115.708 32.896C115.9 32.368 115.996 31.736 115.996 31V27.52C115.996 26.944 115.996 26.472 115.996 26.104C115.996 25.736 115.988 25.424 115.972 25.168C115.972 24.912 115.964 24.688 115.948 24.496C115.948 24.304 115.94 24.096 115.924 23.872C115.892 23.408 115.812 23.088 115.684 22.912C115.572 22.736 115.452 22.6 115.324 22.504C115.196 22.376 115.012 22.304 114.772 22.288C114.548 22.272 114.308 22.264 114.052 22.264L113.932 22.168L113.86 21.256L113.908 21.16C114.02 21.16 114.188 21.168 114.412 21.184C114.636 21.2 114.868 21.216 115.108 21.232C115.364 21.248 115.604 21.264 115.828 21.28C116.052 21.296 116.22 21.304 116.332 21.304H117.82C117.932 21.304 118.108 21.296 118.348 21.28C118.588 21.264 118.836 21.248 119.092 21.232C119.364 21.216 119.62 21.2 119.86 21.184C120.1 21.168 120.276 21.16 120.388 21.16L120.436 21.256ZM123.902 23.872C123.87 23.6 123.806 23.336 123.71 23.08C123.63 22.808 123.502 22.608 123.326 22.48C123.198 22.4 123.038 22.344 122.846 22.312C122.654 22.28 122.39 22.264 122.054 22.264L121.934 22.168L121.862 21.256L121.91 21.16C122.054 21.176 122.246 21.192 122.486 21.208C122.742 21.224 122.998 21.24 123.254 21.256C123.526 21.272 123.782 21.288 124.022 21.304C124.262 21.304 124.454 21.304 124.598 21.304H126.014C126.158 21.304 126.342 21.304 126.566 21.304C126.806 21.288 127.054 21.272 127.31 21.256C127.582 21.24 127.838 21.224 128.078 21.208C128.334 21.192 128.542 21.176 128.702 21.16L128.75 21.256L128.678 22.168L128.582 22.264C128.182 22.264 127.886 22.288 127.694 22.336C127.518 22.368 127.374 22.424 127.262 22.504C126.926 22.728 126.734 23.184 126.686 23.872C126.67 24.032 126.654 24.2 126.638 24.376C126.638 24.536 126.638 24.752 126.638 25.024C126.638 25.28 126.638 25.608 126.638 26.008C126.638 26.408 126.638 26.912 126.638 27.52V30.736C126.638 31.36 126.638 31.872 126.638 32.272C126.638 32.656 126.638 32.984 126.638 33.256C126.654 33.512 126.662 33.744 126.662 33.952C126.678 34.144 126.702 34.376 126.734 34.648C126.75 34.968 126.934 35.128 127.286 35.128H129.518C130.046 35.128 130.462 35.12 130.766 35.104C131.086 35.072 131.334 35.008 131.51 34.912C131.686 34.8 131.822 34.648 131.918 34.456C132.014 34.264 132.102 34 132.182 33.664L132.254 33.568H133.358L132.926 36.856L132.734 37.096C132.606 37.08 132.406 37.064 132.134 37.048C131.862 37.048 131.574 37.04 131.27 37.024C130.966 37.024 130.662 37.016 130.358 37C130.07 37 129.846 37 129.686 37H124.598C124.486 37 124.302 37 124.046 37C123.806 37.016 123.55 37.032 123.278 37.048C123.006 37.064 122.742 37.08 122.486 37.096C122.23 37.112 122.038 37.128 121.91 37.144L121.862 37.048L121.934 36.136L122.054 36.04C122.662 36.04 123.078 35.952 123.302 35.776C123.43 35.664 123.55 35.488 123.662 35.248C123.79 35.008 123.87 34.728 123.902 34.408C123.918 34.248 123.926 34.032 123.926 33.76C123.942 33.472 123.95 33.176 123.95 32.872C123.966 32.568 123.974 32.288 123.974 32.032C123.974 31.76 123.974 31.568 123.974 31.456V27.544C123.974 26.664 123.966 25.896 123.95 25.24C123.95 24.568 123.934 24.112 123.902 23.872ZM141.453 21.256L141.381 22.168L141.285 22.264C141.029 22.264 140.789 22.28 140.565 22.312C140.341 22.328 140.149 22.392 139.989 22.504C139.845 22.616 139.709 22.76 139.581 22.936C139.469 23.112 139.413 23.424 139.413 23.872C139.397 24.096 139.381 24.304 139.365 24.496C139.365 24.688 139.357 24.912 139.341 25.168C139.341 25.424 139.341 25.736 139.341 26.104C139.341 26.472 139.341 26.944 139.341 27.52V30.976C139.341 31.552 139.341 32.024 139.341 32.392C139.341 32.744 139.341 33.04 139.341 33.28C139.357 33.52 139.365 33.728 139.365 33.904C139.381 34.064 139.397 34.24 139.413 34.432C139.445 34.88 139.517 35.192 139.629 35.368C139.741 35.544 139.861 35.688 139.989 35.8C140.133 35.912 140.317 35.984 140.541 36.016C140.781 36.032 141.029 36.04 141.285 36.04L141.381 36.136L141.453 37.048L141.405 37.144C141.293 37.144 141.109 37.136 140.853 37.12C140.597 37.104 140.333 37.088 140.061 37.072C139.789 37.056 139.525 37.04 139.269 37.024C139.013 37.008 138.829 37 138.717 37H137.301C137.189 37 137.005 37.008 136.749 37.024C136.493 37.04 136.229 37.056 135.957 37.072C135.685 37.088 135.421 37.104 135.165 37.12C134.909 37.136 134.725 37.144 134.613 37.144L134.565 37.048L134.637 36.136L134.757 36.04C135.013 36.04 135.253 36.032 135.477 36.016C135.717 35.984 135.901 35.912 136.029 35.8C136.157 35.688 136.269 35.544 136.365 35.368C136.477 35.192 136.565 34.88 136.629 34.432C136.629 34.32 136.629 34.192 136.629 34.048C136.645 33.888 136.653 33.696 136.653 33.472C136.669 33.248 136.677 32.976 136.677 32.656C136.677 32.336 136.677 31.936 136.677 31.456V27.544C136.677 26.984 136.677 26.512 136.677 26.128C136.677 25.744 136.669 25.416 136.653 25.144C136.653 24.872 136.645 24.64 136.629 24.448C136.629 24.256 136.621 24.064 136.605 23.872C136.573 23.456 136.501 23.152 136.389 22.96C136.277 22.768 136.157 22.616 136.029 22.504C135.885 22.392 135.701 22.328 135.477 22.312C135.253 22.28 135.013 22.264 134.757 22.264L134.637 22.168L134.565 21.256L134.613 21.16C134.725 21.16 134.909 21.168 135.165 21.184C135.421 21.2 135.685 21.216 135.957 21.232C136.229 21.248 136.493 21.264 136.749 21.28C137.005 21.296 137.189 21.304 137.301 21.304H138.717C138.829 21.304 139.013 21.296 139.269 21.28C139.525 21.264 139.789 21.248 140.061 21.232C140.333 21.216 140.597 21.2 140.853 21.184C141.109 21.168 141.293 21.16 141.405 21.16L141.453 21.256ZM151.11 21.04C152.342 21.04 153.438 21.256 154.398 21.688C155.358 22.12 156.166 22.712 156.822 23.464C157.478 24.2 157.974 25.056 158.31 26.032C158.662 27.008 158.838 28.032 158.838 29.104C158.838 30.16 158.67 31.184 158.334 32.176C157.998 33.152 157.494 34.016 156.822 34.768C156.166 35.52 155.342 36.128 154.35 36.592C153.374 37.04 152.238 37.264 150.942 37.264C149.694 37.264 148.598 37.048 147.654 36.616C146.71 36.184 145.918 35.608 145.278 34.888C144.654 34.152 144.182 33.304 143.862 32.344C143.542 31.368 143.382 30.344 143.382 29.272C143.382 28.136 143.558 27.072 143.91 26.08C144.262 25.072 144.766 24.2 145.422 23.464C146.078 22.712 146.886 22.12 147.846 21.688C148.806 21.256 149.894 21.04 151.11 21.04ZM151.086 35.272C151.87 35.272 152.566 35.112 153.174 34.792C153.798 34.456 154.318 34.016 154.734 33.472C155.15 32.912 155.47 32.264 155.694 31.528C155.918 30.776 156.03 29.976 156.03 29.128C156.03 28.264 155.91 27.464 155.67 26.728C155.446 25.976 155.11 25.328 154.662 24.784C154.23 24.24 153.702 23.816 153.078 23.512C152.454 23.192 151.75 23.032 150.966 23.032C150.198 23.032 149.518 23.184 148.926 23.488C148.334 23.792 147.838 24.216 147.438 24.76C147.038 25.304 146.734 25.952 146.526 26.704C146.318 27.44 146.214 28.24 146.214 29.104C146.214 30.064 146.334 30.928 146.574 31.696C146.814 32.448 147.15 33.088 147.582 33.616C148.014 34.144 148.526 34.552 149.118 34.84C149.71 35.128 150.366 35.272 151.086 35.272Z" fill="#BF8F31"/>
<path d="M32.9891 24.136L33.0611 23.92C33.2691 23.552 33.5331 23.2 33.8531 22.864C34.1891 22.512 34.5731 22.2 35.0051 21.928C35.4531 21.656 35.9571 21.44 36.5171 21.28C37.0931 21.12 37.7411 21.04 38.4611 21.04C40.1411 21.04 41.3491 21.416 42.0851 22.168C42.8211 22.904 43.1891 23.904 43.1891 25.168C43.1891 25.92 43.0051 26.608 42.6371 27.232C42.2851 27.856 41.8451 28.528 41.3171 29.248C40.9171 29.776 40.4451 30.352 39.9011 30.976C39.3571 31.584 38.8371 32.168 38.3411 32.728C37.8611 33.272 37.4451 33.76 37.0931 34.192C36.7571 34.608 36.5891 34.896 36.5891 35.056L36.6371 35.128H38.0291C38.9411 35.128 39.6691 35.12 40.2131 35.104C40.7571 35.072 41.1811 35.008 41.4851 34.912C41.8051 34.8 42.0291 34.632 42.1571 34.408C42.3011 34.184 42.4291 33.872 42.5411 33.472L42.6611 33.328H43.7891L43.3571 36.904L43.1411 37.144C43.0291 37.144 42.7491 37.136 42.3011 37.12C41.8531 37.104 41.3651 37.088 40.8371 37.072C40.3091 37.056 39.7971 37.04 39.3011 37.024C38.8051 37.008 38.4451 37 38.2211 37H35.8451C35.3811 37 34.8611 37.016 34.2851 37.048C33.7091 37.08 33.1651 37.112 32.6531 37.144L32.4131 36.64V36.088C32.7491 35.656 33.2051 35.112 33.7811 34.456C34.3571 33.784 34.9651 33.08 35.6051 32.344C36.2611 31.592 36.9011 30.84 37.5251 30.088C38.1651 29.336 38.7171 28.656 39.1811 28.048C39.5971 27.488 39.9171 26.968 40.1411 26.488C40.3651 25.992 40.4771 25.456 40.4771 24.88C40.4771 24.304 40.2611 23.856 39.8291 23.536C39.4131 23.2 38.9091 23.032 38.3171 23.032C37.1971 23.032 36.2851 23.304 35.5811 23.848C34.8771 24.376 34.4931 25.176 34.4291 26.248L34.3331 26.344H33.2771L32.9891 24.136ZM46.536 24.136L46.608 23.92C46.816 23.552 47.08 23.2 47.4 22.864C47.736 22.512 48.12 22.2 48.552 21.928C49 21.656 49.504 21.44 50.064 21.28C50.64 21.12 51.288 21.04 52.008 21.04C53.688 21.04 54.896 21.416 55.632 22.168C56.368 22.904 56.736 23.904 56.736 25.168C56.736 25.92 56.552 26.608 56.184 27.232C55.832 27.856 55.392 28.528 54.864 29.248C54.464 29.776 53.992 30.352 53.448 30.976C52.904 31.584 52.384 32.168 51.888 32.728C51.408 33.272 50.992 33.76 50.64 34.192C50.304 34.608 50.136 34.896 50.136 35.056L50.184 35.128H51.576C52.488 35.128 53.216 35.12 53.76 35.104C54.304 35.072 54.728 35.008 55.032 34.912C55.352 34.8 55.576 34.632 55.704 34.408C55.848 34.184 55.976 33.872 56.088 33.472L56.208 33.328H57.336L56.904 36.904L56.688 37.144C56.576 37.144 56.296 37.136 55.848 37.12C55.4 37.104 54.912 37.088 54.384 37.072C53.856 37.056 53.344 37.04 52.848 37.024C52.352 37.008 51.992 37 51.768 37H49.392C48.928 37 48.408 37.016 47.832 37.048C47.256 37.08 46.712 37.112 46.2 37.144L45.96 36.64V36.088C46.296 35.656 46.752 35.112 47.328 34.456C47.904 33.784 48.512 33.08 49.152 32.344C49.808 31.592 50.448 30.84 51.072 30.088C51.712 29.336 52.264 28.656 52.728 28.048C53.144 27.488 53.464 26.968 53.688 26.488C53.912 25.992 54.024 25.456 54.024 24.88C54.024 24.304 53.808 23.856 53.376 23.536C52.96 23.2 52.456 23.032 51.864 23.032C50.744 23.032 49.832 23.304 49.128 23.848C48.424 24.376 48.04 25.176 47.976 26.248L47.88 26.344H46.824L46.536 24.136Z" fill="#BF8F31"/>
<path d="M197.774 23.136L197.846 22.92C198.054 22.552 198.318 22.2 198.638 21.864C198.974 21.512 199.358 21.2 199.79 20.928C200.238 20.656 200.742 20.44 201.302 20.28C201.878 20.12 202.526 20.04 203.246 20.04C204.926 20.04 206.134 20.416 206.87 21.168C207.606 21.904 207.974 22.904 207.974 24.168C207.974 24.92 207.79 25.608 207.422 26.232C207.07 26.856 206.63 27.528 206.102 28.248C205.702 28.776 205.23 29.352 204.686 29.976C204.142 30.584 203.622 31.168 203.126 31.728C202.646 32.272 202.23 32.76 201.878 33.192C201.542 33.608 201.374 33.896 201.374 34.056L201.422 34.128H202.814C203.726 34.128 204.454 34.12 204.998 34.104C205.542 34.072 205.966 34.008 206.27 33.912C206.59 33.8 206.814 33.632 206.942 33.408C207.086 33.184 207.214 32.872 207.326 32.472L207.446 32.328H208.574L208.142 35.904L207.926 36.144C207.814 36.144 207.534 36.136 207.086 36.12C206.638 36.104 206.15 36.088 205.622 36.072C205.094 36.056 204.582 36.04 204.086 36.024C203.59 36.008 203.23 36 203.006 36H200.63C200.166 36 199.646 36.016 199.07 36.048C198.494 36.08 197.95 36.112 197.438 36.144L197.198 35.64V35.088C197.534 34.656 197.99 34.112 198.566 33.456C199.142 32.784 199.75 32.08 200.39 31.344C201.046 30.592 201.686 29.84 202.31 29.088C202.95 28.336 203.502 27.656 203.966 27.048C204.382 26.488 204.702 25.968 204.926 25.488C205.15 24.992 205.262 24.456 205.262 23.88C205.262 23.304 205.046 22.856 204.614 22.536C204.198 22.2 203.694 22.032 203.102 22.032C201.982 22.032 201.07 22.304 200.366 22.848C199.662 23.376 199.278 24.176 199.214 25.248L199.118 25.344H198.062L197.774 23.136ZM217.441 20.04C218.449 20.04 219.345 20.256 220.129 20.688C220.929 21.12 221.601 21.712 222.145 22.464C222.689 23.2 223.105 24.056 223.393 25.032C223.681 26.008 223.825 27.032 223.825 28.104C223.825 29.16 223.681 30.184 223.393 31.176C223.121 32.152 222.713 33.016 222.169 33.768C221.625 34.52 220.945 35.128 220.129 35.592C219.313 36.04 218.377 36.264 217.321 36.264C216.281 36.264 215.369 36.048 214.585 35.616C213.817 35.184 213.169 34.608 212.641 33.888C212.129 33.152 211.737 32.304 211.465 31.344C211.209 30.368 211.081 29.344 211.081 28.272C211.081 27.136 211.225 26.072 211.513 25.08C211.801 24.072 212.217 23.2 212.761 22.464C213.305 21.712 213.969 21.12 214.753 20.688C215.537 20.256 216.433 20.04 217.441 20.04ZM217.417 34.272C217.993 34.272 218.497 34.112 218.929 33.792C219.377 33.456 219.753 33.016 220.057 32.472C220.377 31.912 220.617 31.264 220.777 30.528C220.937 29.776 221.017 28.976 221.017 28.128C221.017 27.264 220.929 26.464 220.753 25.728C220.593 24.976 220.353 24.328 220.033 23.784C219.713 23.24 219.321 22.816 218.857 22.512C218.409 22.192 217.905 22.032 217.345 22.032C216.785 22.032 216.289 22.184 215.857 22.488C215.441 22.792 215.089 23.216 214.801 23.76C214.513 24.304 214.289 24.952 214.129 25.704C213.985 26.44 213.913 27.24 213.913 28.104C213.913 29.064 214.001 29.928 214.177 30.696C214.353 31.448 214.593 32.088 214.897 32.616C215.217 33.144 215.585 33.552 216.001 33.84C216.433 34.128 216.905 34.272 217.417 34.272ZM226.626 23.136L226.698 22.92C226.906 22.552 227.17 22.2 227.49 21.864C227.826 21.512 228.21 21.2 228.642 20.928C229.09 20.656 229.594 20.44 230.154 20.28C230.73 20.12 231.378 20.04 232.098 20.04C233.778 20.04 234.986 20.416 235.722 21.168C236.458 21.904 236.826 22.904 236.826 24.168C236.826 24.92 236.642 25.608 236.274 26.232C235.922 26.856 235.482 27.528 234.954 28.248C234.554 28.776 234.082 29.352 233.538 29.976C232.994 30.584 232.474 31.168 231.978 31.728C231.498 32.272 231.082 32.76 230.73 33.192C230.394 33.608 230.226 33.896 230.226 34.056L230.274 34.128H231.666C232.578 34.128 233.306 34.12 233.85 34.104C234.394 34.072 234.818 34.008 235.122 33.912C235.442 33.8 235.666 33.632 235.794 33.408C235.938 33.184 236.066 32.872 236.178 32.472L236.298 32.328H237.426L236.994 35.904L236.778 36.144C236.666 36.144 236.386 36.136 235.938 36.12C235.49 36.104 235.002 36.088 234.474 36.072C233.946 36.056 233.434 36.04 232.938 36.024C232.442 36.008 232.082 36 231.858 36H229.482C229.018 36 228.498 36.016 227.922 36.048C227.346 36.08 226.802 36.112 226.29 36.144L226.05 35.64V35.088C226.386 34.656 226.842 34.112 227.418 33.456C227.994 32.784 228.602 32.08 229.242 31.344C229.898 30.592 230.538 29.84 231.162 29.088C231.802 28.336 232.354 27.656 232.818 27.048C233.234 26.488 233.554 25.968 233.778 25.488C234.002 24.992 234.114 24.456 234.114 23.88C234.114 23.304 233.898 22.856 233.466 22.536C233.05 22.2 232.546 22.032 231.954 22.032C230.834 22.032 229.922 22.304 229.218 22.848C228.514 23.376 228.13 24.176 228.066 25.248L227.97 25.344H226.914L226.626 23.136ZM241.469 31.992C241.485 32.28 241.565 32.56 241.709 32.832C241.869 33.104 242.093 33.352 242.381 33.576C242.685 33.784 243.045 33.952 243.461 34.08C243.893 34.208 244.389 34.272 244.949 34.272C245.493 34.272 245.941 34.192 246.293 34.032C246.645 33.856 246.925 33.64 247.133 33.384C247.357 33.112 247.509 32.816 247.589 32.496C247.685 32.176 247.733 31.864 247.733 31.56C247.733 31.192 247.677 30.824 247.565 30.456C247.469 30.088 247.309 29.76 247.085 29.472C246.877 29.184 246.613 28.952 246.293 28.776C245.973 28.6 245.589 28.512 245.141 28.512H244.373L244.253 28.416L244.181 27.024L244.301 26.904H244.733C245.037 26.904 245.333 26.824 245.621 26.664C245.909 26.488 246.157 26.272 246.365 26.016C246.589 25.744 246.765 25.44 246.893 25.104C247.037 24.768 247.109 24.44 247.109 24.12C247.109 23.56 246.925 23.072 246.557 22.656C246.189 22.224 245.629 22.008 244.877 22.008C244.349 22.008 243.909 22.08 243.557 22.224C243.205 22.368 242.917 22.568 242.693 22.824C242.469 23.08 242.293 23.4 242.165 23.784C242.053 24.152 241.973 24.56 241.925 25.008L241.829 25.104H240.557L240.269 23.136L240.317 22.92C240.493 22.584 240.725 22.248 241.013 21.912C241.301 21.56 241.653 21.248 242.069 20.976C242.485 20.688 242.957 20.464 243.485 20.304C244.029 20.128 244.637 20.04 245.309 20.04C245.853 20.04 246.389 20.12 246.917 20.28C247.445 20.424 247.909 20.648 248.309 20.952C248.725 21.256 249.061 21.64 249.317 22.104C249.573 22.568 249.701 23.112 249.701 23.736C249.701 24.232 249.637 24.68 249.509 25.08C249.381 25.48 249.213 25.832 249.005 26.136C248.797 26.44 248.573 26.696 248.333 26.904C248.093 27.096 247.853 27.24 247.613 27.336V27.432C248.509 27.608 249.213 28.072 249.725 28.824C250.253 29.576 250.517 30.456 250.517 31.464C250.517 32.168 250.373 32.816 250.085 33.408C249.813 34 249.421 34.512 248.909 34.944C248.413 35.36 247.805 35.688 247.085 35.928C246.365 36.152 245.573 36.264 244.709 36.264C242.549 36.264 240.941 35.536 239.885 34.08L239.861 33.864L240.125 31.896H241.397L241.469 31.992Z" fill="#BF8F31"/>
<path d="M0.226497 6L6 11.7735L11.7735 6L6 0.226497L0.226497 6ZM283.773 6L278 0.226497L272.227 6L278 11.7735L283.773 6ZM6 7H278V5H6V7Z" fill="#BF8F31"/>
<path d="M0.226497 53.5L6 59.2735L11.7735 53.5L6 47.7265L0.226497 53.5ZM283.773 53.5L278 47.7265L272.227 53.5L278 59.2735L283.773 53.5ZM6 54.5H278V52.5H6V54.5Z" fill="#BF8F31"/>
<line x1="179" y1="13" x2="179" y2="47" stroke="#BF8F31" stroke-width="2"/>
<line x1="78" y1="13" x2="78" y2="47" stroke="#BF8F31" stroke-width="2"/>
</svg>
