<svg width="284" height="60" viewBox="0 0 284 60" fill="none" xmlns="http://www.w3.org/2000/svg">
<path d="M26.6588 21.756L26.5868 22.668L26.4908 22.764C26.2348 22.764 25.9948 22.78 25.7708 22.812C25.5468 22.828 25.3548 22.892 25.1948 23.004C25.0508 23.116 24.9148 23.26 24.7868 23.436C24.6748 23.612 24.6188 23.924 24.6188 24.372C24.6028 24.564 24.5868 24.748 24.5708 24.924C24.5708 25.084 24.5628 25.276 24.5468 25.5C24.5468 25.724 24.5468 25.996 24.5468 26.316C24.5468 26.636 24.5468 27.044 24.5468 27.54V31.956C24.5468 32.532 24.5468 33.02 24.5468 33.42C24.5468 33.804 24.5388 34.132 24.5228 34.404C24.5228 34.676 24.5228 34.916 24.5228 35.124C24.5228 35.316 24.5228 35.5 24.5228 35.676C24.5068 37.436 24.1868 38.748 23.5628 39.612C22.9388 40.476 22.0508 40.996 20.8988 41.172C20.7228 41.204 20.5308 41.22 20.3228 41.22C20.1308 41.236 19.9548 41.244 19.7948 41.244L19.6028 41.172L19.5548 39.924L19.6508 39.804C19.7308 39.804 19.8908 39.796 20.1308 39.78C20.3708 39.78 20.5308 39.78 20.6108 39.78C20.8988 39.78 21.1228 39.668 21.2828 39.444C21.4588 39.22 21.5868 38.964 21.6668 38.676C21.7148 38.484 21.7548 38.148 21.7868 37.668C21.8188 37.188 21.8428 36.644 21.8588 36.036C21.8748 35.428 21.8828 34.804 21.8828 34.164C21.8828 33.524 21.8828 32.948 21.8828 32.436V27.564C21.8828 27.084 21.8828 26.676 21.8828 26.34C21.8828 26.004 21.8748 25.716 21.8588 25.476C21.8588 25.236 21.8508 25.036 21.8348 24.876C21.8348 24.7 21.8268 24.532 21.8108 24.372C21.7788 23.94 21.7068 23.628 21.5948 23.436C21.4828 23.244 21.3628 23.1 21.2348 23.004C21.0908 22.876 20.9068 22.804 20.6828 22.788C20.4588 22.772 20.2188 22.764 19.9628 22.764L19.8428 22.668L19.7708 21.756L19.8188 21.66C19.9308 21.66 20.1148 21.668 20.3708 21.684C20.6268 21.7 20.8908 21.716 21.1628 21.732C21.4348 21.748 21.6988 21.764 21.9548 21.78C22.2108 21.796 22.3948 21.804 22.5068 21.804H23.9228C24.0348 21.804 24.2188 21.796 24.4748 21.78C24.7308 21.764 24.9948 21.748 25.2668 21.732C25.5388 21.716 25.8028 21.7 26.0588 21.684C26.3148 21.668 26.4988 21.66 26.6108 21.66L26.6588 21.756ZM44.4357 21.756L44.3637 22.668L44.2677 22.764C44.0437 22.764 43.8037 22.78 43.5477 22.812C43.3077 22.828 43.1157 22.892 42.9717 23.004C42.8437 23.116 42.7157 23.26 42.5877 23.436C42.4757 23.612 42.4037 23.924 42.3717 24.372C42.3717 24.564 42.3637 24.756 42.3477 24.948C42.3477 25.14 42.3397 25.372 42.3237 25.644C42.3237 25.916 42.3237 26.244 42.3237 26.628C42.3237 27.012 42.3237 27.484 42.3237 28.044V32.172C42.3237 32.956 42.1877 33.692 41.9157 34.38C41.6597 35.052 41.2757 35.644 40.7637 36.156C40.2517 36.652 39.6117 37.044 38.8437 37.332C38.0917 37.62 37.2277 37.764 36.2517 37.764C35.0517 37.764 34.0437 37.62 33.2277 37.332C32.4277 37.044 31.7877 36.652 31.3077 36.156C30.8277 35.644 30.4837 35.052 30.2757 34.38C30.0677 33.692 29.9637 32.956 29.9637 32.172V28.044C29.9637 27.484 29.9637 27.012 29.9637 26.628C29.9637 26.244 29.9637 25.916 29.9637 25.644C29.9637 25.372 29.9557 25.14 29.9397 24.948C29.9397 24.756 29.9317 24.564 29.9157 24.372C29.8837 23.94 29.8037 23.628 29.6757 23.436C29.5637 23.244 29.4437 23.1 29.3157 23.004C29.1717 22.876 28.9877 22.804 28.7637 22.788C28.5397 22.772 28.2997 22.764 28.0437 22.764L27.9237 22.668L27.8517 21.756L27.8997 21.66C28.0117 21.66 28.1957 21.668 28.4517 21.684C28.7077 21.7 28.9717 21.716 29.2437 21.732C29.5157 21.748 29.7797 21.764 30.0357 21.78C30.2917 21.796 30.4757 21.804 30.5877 21.804H32.0037C32.1157 21.804 32.2997 21.796 32.5557 21.78C32.8117 21.764 33.0757 21.748 33.3477 21.732C33.6197 21.716 33.8837 21.7 34.1397 21.684C34.3957 21.668 34.5797 21.66 34.6917 21.66L34.7397 21.756L34.6677 22.668L34.5717 22.764C34.3477 22.764 34.1077 22.78 33.8517 22.812C33.6117 22.828 33.4197 22.892 33.2757 23.004C33.1477 23.116 33.0277 23.26 32.9157 23.436C32.8037 23.612 32.7317 23.924 32.6997 24.372C32.6837 24.596 32.6677 24.804 32.6517 24.996C32.6517 25.188 32.6437 25.412 32.6277 25.668C32.6277 25.924 32.6277 26.236 32.6277 26.604C32.6277 26.972 32.6277 27.444 32.6277 28.02V31.5C32.6277 32.988 32.9157 34.052 33.4917 34.692C34.0837 35.316 34.9877 35.628 36.2037 35.628C36.7477 35.628 37.2517 35.556 37.7157 35.412C38.1797 35.252 38.5797 35.004 38.9157 34.668C39.2517 34.332 39.5157 33.908 39.7077 33.396C39.8997 32.868 39.9957 32.236 39.9957 31.5V28.02C39.9957 27.444 39.9957 26.972 39.9957 26.604C39.9957 26.236 39.9877 25.924 39.9717 25.668C39.9717 25.412 39.9637 25.188 39.9477 24.996C39.9477 24.804 39.9397 24.596 39.9237 24.372C39.8917 23.908 39.8117 23.588 39.6837 23.412C39.5717 23.236 39.4517 23.1 39.3237 23.004C39.1957 22.876 39.0117 22.804 38.7717 22.788C38.5477 22.772 38.3077 22.764 38.0517 22.764L37.9317 22.668L37.8597 21.756L37.9077 21.66C38.0197 21.66 38.1877 21.668 38.4117 21.684C38.6357 21.7 38.8677 21.716 39.1077 21.732C39.3637 21.748 39.6037 21.764 39.8277 21.78C40.0517 21.796 40.2197 21.804 40.3317 21.804H41.8197C41.9317 21.804 42.1077 21.796 42.3477 21.78C42.5877 21.764 42.8357 21.748 43.0917 21.732C43.3637 21.716 43.6197 21.7 43.8597 21.684C44.0997 21.668 44.2757 21.66 44.3877 21.66L44.4357 21.756ZM47.9023 24.372C47.8703 24.1 47.8063 23.836 47.7103 23.58C47.6303 23.308 47.5023 23.108 47.3263 22.98C47.1983 22.9 47.0383 22.844 46.8463 22.812C46.6543 22.78 46.3903 22.764 46.0543 22.764L45.9343 22.668L45.8623 21.756L45.9103 21.66C46.0543 21.676 46.2463 21.692 46.4863 21.708C46.7423 21.724 46.9983 21.74 47.2543 21.756C47.5263 21.772 47.7823 21.788 48.0223 21.804C48.2623 21.804 48.4543 21.804 48.5983 21.804H50.0143C50.1583 21.804 50.3423 21.804 50.5663 21.804C50.8063 21.788 51.0543 21.772 51.3103 21.756C51.5823 21.74 51.8383 21.724 52.0783 21.708C52.3343 21.692 52.5423 21.676 52.7023 21.66L52.7503 21.756L52.6783 22.668L52.5823 22.764C52.1823 22.764 51.8863 22.788 51.6943 22.836C51.5183 22.868 51.3743 22.924 51.2623 23.004C50.9263 23.228 50.7343 23.684 50.6863 24.372C50.6703 24.532 50.6543 24.7 50.6383 24.876C50.6383 25.036 50.6383 25.252 50.6383 25.524C50.6383 25.78 50.6383 26.108 50.6383 26.508C50.6383 26.908 50.6383 27.412 50.6383 28.02V31.236C50.6383 31.86 50.6383 32.372 50.6383 32.772C50.6383 33.156 50.6383 33.484 50.6383 33.756C50.6543 34.012 50.6623 34.244 50.6623 34.452C50.6783 34.644 50.7023 34.876 50.7343 35.148C50.7503 35.468 50.9343 35.628 51.2863 35.628H53.5183C54.0463 35.628 54.4623 35.62 54.7663 35.604C55.0863 35.572 55.3343 35.508 55.5103 35.412C55.6863 35.3 55.8223 35.148 55.9183 34.956C56.0143 34.764 56.1023 34.5 56.1823 34.164L56.2543 34.068H57.3583L56.9263 37.356L56.7343 37.596C56.6063 37.58 56.4063 37.564 56.1343 37.548C55.8623 37.548 55.5743 37.54 55.2703 37.524C54.9663 37.524 54.6623 37.516 54.3583 37.5C54.0703 37.5 53.8463 37.5 53.6863 37.5H48.5983C48.4863 37.5 48.3023 37.5 48.0463 37.5C47.8063 37.516 47.5503 37.532 47.2783 37.548C47.0063 37.564 46.7423 37.58 46.4863 37.596C46.2303 37.612 46.0383 37.628 45.9103 37.644L45.8623 37.548L45.9343 36.636L46.0543 36.54C46.6623 36.54 47.0783 36.452 47.3023 36.276C47.4303 36.164 47.5503 35.988 47.6623 35.748C47.7903 35.508 47.8703 35.228 47.9023 34.908C47.9183 34.748 47.9263 34.532 47.9263 34.26C47.9423 33.972 47.9503 33.676 47.9503 33.372C47.9663 33.068 47.9743 32.788 47.9743 32.532C47.9743 32.26 47.9743 32.068 47.9743 31.956V28.044C47.9743 27.164 47.9663 26.396 47.9503 25.74C47.9503 25.068 47.9343 24.612 47.9023 24.372ZM65.4535 21.756L65.3815 22.668L65.2855 22.764C65.0295 22.764 64.7895 22.78 64.5655 22.812C64.3415 22.828 64.1495 22.892 63.9895 23.004C63.8455 23.116 63.7095 23.26 63.5815 23.436C63.4695 23.612 63.4135 23.924 63.4135 24.372C63.3975 24.596 63.3815 24.804 63.3655 24.996C63.3655 25.188 63.3575 25.412 63.3415 25.668C63.3415 25.924 63.3415 26.236 63.3415 26.604C63.3415 26.972 63.3415 27.444 63.3415 28.02V31.476C63.3415 32.052 63.3415 32.524 63.3415 32.892C63.3415 33.244 63.3415 33.54 63.3415 33.78C63.3575 34.02 63.3655 34.228 63.3655 34.404C63.3815 34.564 63.3975 34.74 63.4135 34.932C63.4455 35.38 63.5175 35.692 63.6295 35.868C63.7415 36.044 63.8615 36.188 63.9895 36.3C64.1335 36.412 64.3175 36.484 64.5415 36.516C64.7815 36.532 65.0295 36.54 65.2855 36.54L65.3815 36.636L65.4535 37.548L65.4055 37.644C65.2935 37.644 65.1095 37.636 64.8535 37.62C64.5975 37.604 64.3335 37.588 64.0615 37.572C63.7895 37.556 63.5255 37.54 63.2695 37.524C63.0135 37.508 62.8295 37.5 62.7175 37.5H61.3015C61.1895 37.5 61.0055 37.508 60.7495 37.524C60.4935 37.54 60.2295 37.556 59.9575 37.572C59.6855 37.588 59.4215 37.604 59.1655 37.62C58.9095 37.636 58.7255 37.644 58.6135 37.644L58.5655 37.548L58.6375 36.636L58.7575 36.54C59.0135 36.54 59.2535 36.532 59.4775 36.516C59.7175 36.484 59.9015 36.412 60.0295 36.3C60.1575 36.188 60.2695 36.044 60.3655 35.868C60.4775 35.692 60.5655 35.38 60.6295 34.932C60.6295 34.82 60.6295 34.692 60.6295 34.548C60.6455 34.388 60.6535 34.196 60.6535 33.972C60.6695 33.748 60.6775 33.476 60.6775 33.156C60.6775 32.836 60.6775 32.436 60.6775 31.956V28.044C60.6775 27.484 60.6775 27.012 60.6775 26.628C60.6775 26.244 60.6695 25.916 60.6535 25.644C60.6535 25.372 60.6455 25.14 60.6295 24.948C60.6295 24.756 60.6215 24.564 60.6055 24.372C60.5735 23.956 60.5015 23.652 60.3895 23.46C60.2775 23.268 60.1575 23.116 60.0295 23.004C59.8855 22.892 59.7015 22.828 59.4775 22.812C59.2535 22.78 59.0135 22.764 58.7575 22.764L58.6375 22.668L58.5655 21.756L58.6135 21.66C58.7255 21.66 58.9095 21.668 59.1655 21.684C59.4215 21.7 59.6855 21.716 59.9575 21.732C60.2295 21.748 60.4935 21.764 60.7495 21.78C61.0055 21.796 61.1895 21.804 61.3015 21.804H62.7175C62.8295 21.804 63.0135 21.796 63.2695 21.78C63.5255 21.764 63.7895 21.748 64.0615 21.732C64.3335 21.716 64.5975 21.7 64.8535 21.684C65.1095 21.668 65.2935 21.66 65.4055 21.66L65.4535 21.756ZM75.1099 21.54C76.3419 21.54 77.4379 21.756 78.3979 22.188C79.3579 22.62 80.1659 23.212 80.8219 23.964C81.4779 24.7 81.9739 25.556 82.3099 26.532C82.6619 27.508 82.8379 28.532 82.8379 29.604C82.8379 30.66 82.6699 31.684 82.3339 32.676C81.9979 33.652 81.4939 34.516 80.8219 35.268C80.1659 36.02 79.3419 36.628 78.3499 37.092C77.3739 37.54 76.2379 37.764 74.9419 37.764C73.6939 37.764 72.5979 37.548 71.6539 37.116C70.7099 36.684 69.9179 36.108 69.2779 35.388C68.6539 34.652 68.1819 33.804 67.8619 32.844C67.5419 31.868 67.3819 30.844 67.3819 29.772C67.3819 28.636 67.5579 27.572 67.9099 26.58C68.2619 25.572 68.7659 24.7 69.4219 23.964C70.0779 23.212 70.8859 22.62 71.8459 22.188C72.8059 21.756 73.8939 21.54 75.1099 21.54ZM75.0859 35.772C75.8699 35.772 76.5659 35.612 77.1739 35.292C77.7979 34.956 78.3179 34.516 78.7339 33.972C79.1499 33.412 79.4699 32.764 79.6939 32.028C79.9179 31.276 80.0299 30.476 80.0299 29.628C80.0299 28.764 79.9099 27.964 79.6699 27.228C79.4459 26.476 79.1099 25.828 78.6619 25.284C78.2299 24.74 77.7019 24.316 77.0779 24.012C76.4539 23.692 75.7499 23.532 74.9659 23.532C74.1979 23.532 73.5179 23.684 72.9259 23.988C72.3339 24.292 71.8379 24.716 71.4379 25.26C71.0379 25.804 70.7339 26.452 70.5259 27.204C70.3179 27.94 70.2139 28.74 70.2139 29.604C70.2139 30.564 70.3339 31.428 70.5739 32.196C70.8139 32.948 71.1499 33.588 71.5819 34.116C72.0139 34.644 72.5259 35.052 73.1179 35.34C73.7099 35.628 74.3659 35.772 75.0859 35.772Z" fill="#BF8F31"/>
<path d="M137.989 24.636L138.061 24.42C138.269 24.052 138.533 23.7 138.853 23.364C139.189 23.012 139.573 22.7 140.005 22.428C140.453 22.156 140.957 21.94 141.517 21.78C142.093 21.62 142.741 21.54 143.461 21.54C145.141 21.54 146.349 21.916 147.085 22.668C147.821 23.404 148.189 24.404 148.189 25.668C148.189 26.42 148.005 27.108 147.637 27.732C147.285 28.356 146.845 29.028 146.317 29.748C145.917 30.276 145.445 30.852 144.901 31.476C144.357 32.084 143.837 32.668 143.341 33.228C142.861 33.772 142.445 34.26 142.093 34.692C141.757 35.108 141.589 35.396 141.589 35.556L141.637 35.628H143.029C143.941 35.628 144.669 35.62 145.213 35.604C145.757 35.572 146.181 35.508 146.485 35.412C146.805 35.3 147.029 35.132 147.157 34.908C147.301 34.684 147.429 34.372 147.541 33.972L147.661 33.828H148.789L148.357 37.404L148.141 37.644C148.029 37.644 147.749 37.636 147.301 37.62C146.853 37.604 146.365 37.588 145.837 37.572C145.309 37.556 144.797 37.54 144.301 37.524C143.805 37.508 143.445 37.5 143.221 37.5H140.845C140.381 37.5 139.861 37.516 139.285 37.548C138.709 37.58 138.165 37.612 137.653 37.644L137.413 37.14V36.588C137.749 36.156 138.205 35.612 138.781 34.956C139.357 34.284 139.965 33.58 140.605 32.844C141.261 32.092 141.901 31.34 142.525 30.588C143.165 29.836 143.717 29.156 144.181 28.548C144.597 27.988 144.917 27.468 145.141 26.988C145.365 26.492 145.477 25.956 145.477 25.38C145.477 24.804 145.261 24.356 144.829 24.036C144.413 23.7 143.909 23.532 143.317 23.532C142.197 23.532 141.285 23.804 140.581 24.348C139.877 24.876 139.493 25.676 139.429 26.748L139.333 26.844H138.277L137.989 24.636ZM151.536 24.636L151.608 24.42C151.816 24.052 152.08 23.7 152.4 23.364C152.736 23.012 153.12 22.7 153.552 22.428C154 22.156 154.504 21.94 155.064 21.78C155.64 21.62 156.288 21.54 157.008 21.54C158.688 21.54 159.896 21.916 160.632 22.668C161.368 23.404 161.736 24.404 161.736 25.668C161.736 26.42 161.552 27.108 161.184 27.732C160.832 28.356 160.392 29.028 159.864 29.748C159.464 30.276 158.992 30.852 158.448 31.476C157.904 32.084 157.384 32.668 156.888 33.228C156.408 33.772 155.992 34.26 155.64 34.692C155.304 35.108 155.136 35.396 155.136 35.556L155.184 35.628H156.576C157.488 35.628 158.216 35.62 158.76 35.604C159.304 35.572 159.728 35.508 160.032 35.412C160.352 35.3 160.576 35.132 160.704 34.908C160.848 34.684 160.976 34.372 161.088 33.972L161.208 33.828H162.336L161.904 37.404L161.688 37.644C161.576 37.644 161.296 37.636 160.848 37.62C160.4 37.604 159.912 37.588 159.384 37.572C158.856 37.556 158.344 37.54 157.848 37.524C157.352 37.508 156.992 37.5 156.768 37.5H154.392C153.928 37.5 153.408 37.516 152.832 37.548C152.256 37.58 151.712 37.612 151.2 37.644L150.96 37.14V36.588C151.296 36.156 151.752 35.612 152.328 34.956C152.904 34.284 153.512 33.58 154.152 32.844C154.808 32.092 155.448 31.34 156.072 30.588C156.712 29.836 157.264 29.156 157.728 28.548C158.144 27.988 158.464 27.468 158.688 26.988C158.912 26.492 159.024 25.956 159.024 25.38C159.024 24.804 158.808 24.356 158.376 24.036C157.96 23.7 157.456 23.532 156.864 23.532C155.744 23.532 154.832 23.804 154.128 24.348C153.424 24.876 153.04 25.676 152.976 26.748L152.88 26.844H151.824L151.536 24.636Z" fill="#BF8F31"/>
<path d="M217.774 22.636L217.846 22.42C218.054 22.052 218.318 21.7 218.638 21.364C218.974 21.012 219.358 20.7 219.79 20.428C220.238 20.156 220.742 19.94 221.302 19.78C221.878 19.62 222.526 19.54 223.246 19.54C224.926 19.54 226.134 19.916 226.87 20.668C227.606 21.404 227.974 22.404 227.974 23.668C227.974 24.42 227.79 25.108 227.422 25.732C227.07 26.356 226.63 27.028 226.102 27.748C225.702 28.276 225.23 28.852 224.686 29.476C224.142 30.084 223.622 30.668 223.126 31.228C222.646 31.772 222.23 32.26 221.878 32.692C221.542 33.108 221.374 33.396 221.374 33.556L221.422 33.628H222.814C223.726 33.628 224.454 33.62 224.998 33.604C225.542 33.572 225.966 33.508 226.27 33.412C226.59 33.3 226.814 33.132 226.942 32.908C227.086 32.684 227.214 32.372 227.326 31.972L227.446 31.828H228.574L228.142 35.404L227.926 35.644C227.814 35.644 227.534 35.636 227.086 35.62C226.638 35.604 226.15 35.588 225.622 35.572C225.094 35.556 224.582 35.54 224.086 35.524C223.59 35.508 223.23 35.5 223.006 35.5H220.63C220.166 35.5 219.646 35.516 219.07 35.548C218.494 35.58 217.95 35.612 217.438 35.644L217.198 35.14V34.588C217.534 34.156 217.99 33.612 218.566 32.956C219.142 32.284 219.75 31.58 220.39 30.844C221.046 30.092 221.686 29.34 222.31 28.588C222.95 27.836 223.502 27.156 223.966 26.548C224.382 25.988 224.702 25.468 224.926 24.988C225.15 24.492 225.262 23.956 225.262 23.38C225.262 22.804 225.046 22.356 224.614 22.036C224.198 21.7 223.694 21.532 223.102 21.532C221.982 21.532 221.07 21.804 220.366 22.348C219.662 22.876 219.278 23.676 219.214 24.748L219.118 24.844H218.062L217.774 22.636ZM237.441 19.54C238.449 19.54 239.345 19.756 240.129 20.188C240.929 20.62 241.601 21.212 242.145 21.964C242.689 22.7 243.105 23.556 243.393 24.532C243.681 25.508 243.825 26.532 243.825 27.604C243.825 28.66 243.681 29.684 243.393 30.676C243.121 31.652 242.713 32.516 242.169 33.268C241.625 34.02 240.945 34.628 240.129 35.092C239.313 35.54 238.377 35.764 237.321 35.764C236.281 35.764 235.369 35.548 234.585 35.116C233.817 34.684 233.169 34.108 232.641 33.388C232.129 32.652 231.737 31.804 231.465 30.844C231.209 29.868 231.081 28.844 231.081 27.772C231.081 26.636 231.225 25.572 231.513 24.58C231.801 23.572 232.217 22.7 232.761 21.964C233.305 21.212 233.969 20.62 234.753 20.188C235.537 19.756 236.433 19.54 237.441 19.54ZM237.417 33.772C237.993 33.772 238.497 33.612 238.929 33.292C239.377 32.956 239.753 32.516 240.057 31.972C240.377 31.412 240.617 30.764 240.777 30.028C240.937 29.276 241.017 28.476 241.017 27.628C241.017 26.764 240.929 25.964 240.753 25.228C240.593 24.476 240.353 23.828 240.033 23.284C239.713 22.74 239.321 22.316 238.857 22.012C238.409 21.692 237.905 21.532 237.345 21.532C236.785 21.532 236.289 21.684 235.857 21.988C235.441 22.292 235.089 22.716 234.801 23.26C234.513 23.804 234.289 24.452 234.129 25.204C233.985 25.94 233.913 26.74 233.913 27.604C233.913 28.564 234.001 29.428 234.177 30.196C234.353 30.948 234.593 31.588 234.897 32.116C235.217 32.644 235.585 33.052 236.001 33.34C236.433 33.628 236.905 33.772 237.417 33.772ZM246.626 22.636L246.698 22.42C246.906 22.052 247.17 21.7 247.49 21.364C247.826 21.012 248.21 20.7 248.642 20.428C249.09 20.156 249.594 19.94 250.154 19.78C250.73 19.62 251.378 19.54 252.098 19.54C253.778 19.54 254.986 19.916 255.722 20.668C256.458 21.404 256.826 22.404 256.826 23.668C256.826 24.42 256.642 25.108 256.274 25.732C255.922 26.356 255.482 27.028 254.954 27.748C254.554 28.276 254.082 28.852 253.538 29.476C252.994 30.084 252.474 30.668 251.978 31.228C251.498 31.772 251.082 32.26 250.73 32.692C250.394 33.108 250.226 33.396 250.226 33.556L250.274 33.628H251.666C252.578 33.628 253.306 33.62 253.85 33.604C254.394 33.572 254.818 33.508 255.122 33.412C255.442 33.3 255.666 33.132 255.794 32.908C255.938 32.684 256.066 32.372 256.178 31.972L256.298 31.828H257.426L256.994 35.404L256.778 35.644C256.666 35.644 256.386 35.636 255.938 35.62C255.49 35.604 255.002 35.588 254.474 35.572C253.946 35.556 253.434 35.54 252.938 35.524C252.442 35.508 252.082 35.5 251.858 35.5H249.482C249.018 35.5 248.498 35.516 247.922 35.548C247.346 35.58 246.802 35.612 246.29 35.644L246.05 35.14V34.588C246.386 34.156 246.842 33.612 247.418 32.956C247.994 32.284 248.602 31.58 249.242 30.844C249.898 30.092 250.538 29.34 251.162 28.588C251.802 27.836 252.354 27.156 252.818 26.548C253.234 25.988 253.554 25.468 253.778 24.988C254.002 24.492 254.114 23.956 254.114 23.38C254.114 22.804 253.898 22.356 253.466 22.036C253.05 21.7 252.546 21.532 251.954 21.532C250.834 21.532 249.922 21.804 249.218 22.348C248.514 22.876 248.13 23.676 248.066 24.748L247.97 24.844H246.914L246.626 22.636ZM261.469 31.492C261.485 31.78 261.565 32.06 261.709 32.332C261.869 32.604 262.093 32.852 262.381 33.076C262.685 33.284 263.045 33.452 263.461 33.58C263.893 33.708 264.389 33.772 264.949 33.772C265.493 33.772 265.941 33.692 266.293 33.532C266.645 33.356 266.925 33.14 267.133 32.884C267.357 32.612 267.509 32.316 267.589 31.996C267.685 31.676 267.733 31.364 267.733 31.06C267.733 30.692 267.677 30.324 267.565 29.956C267.469 29.588 267.309 29.26 267.085 28.972C266.877 28.684 266.613 28.452 266.293 28.276C265.973 28.1 265.589 28.012 265.141 28.012H264.373L264.253 27.916L264.181 26.524L264.301 26.404H264.733C265.037 26.404 265.333 26.324 265.621 26.164C265.909 25.988 266.157 25.772 266.365 25.516C266.589 25.244 266.765 24.94 266.893 24.604C267.037 24.268 267.109 23.94 267.109 23.62C267.109 23.06 266.925 22.572 266.557 22.156C266.189 21.724 265.629 21.508 264.877 21.508C264.349 21.508 263.909 21.58 263.557 21.724C263.205 21.868 262.917 22.068 262.693 22.324C262.469 22.58 262.293 22.9 262.165 23.284C262.053 23.652 261.973 24.06 261.925 24.508L261.829 24.604H260.557L260.269 22.636L260.317 22.42C260.493 22.084 260.725 21.748 261.013 21.412C261.301 21.06 261.653 20.748 262.069 20.476C262.485 20.188 262.957 19.964 263.485 19.804C264.029 19.628 264.637 19.54 265.309 19.54C265.853 19.54 266.389 19.62 266.917 19.78C267.445 19.924 267.909 20.148 268.309 20.452C268.725 20.756 269.061 21.14 269.317 21.604C269.573 22.068 269.701 22.612 269.701 23.236C269.701 23.732 269.637 24.18 269.509 24.58C269.381 24.98 269.213 25.332 269.005 25.636C268.797 25.94 268.573 26.196 268.333 26.404C268.093 26.596 267.853 26.74 267.613 26.836V26.932C268.509 27.108 269.213 27.572 269.725 28.324C270.253 29.076 270.517 29.956 270.517 30.964C270.517 31.668 270.373 32.316 270.085 32.908C269.813 33.5 269.421 34.012 268.909 34.444C268.413 34.86 267.805 35.188 267.085 35.428C266.365 35.652 265.573 35.764 264.709 35.764C262.549 35.764 260.941 35.036 259.885 33.58L259.861 33.364L260.125 31.396H261.397L261.469 31.492Z" fill="#BF8F31"/>
<path d="M0.226497 6L6 11.7735L11.7735 6L6 0.226497L0.226497 6ZM283.774 6L278 0.226497L272.226 6L278 11.7735L283.774 6ZM6 7H278V5H6V7Z" fill="#BF8F31"/>
<path d="M0.226497 53.5L6 59.2735L11.7735 53.5L6 47.7265L0.226497 53.5ZM283.774 53.5L278 47.7265L272.226 53.5L278 59.2735L283.774 53.5ZM6 54.5H278V52.5H6V54.5Z" fill="#BF8F31"/>
<line x1="195" y1="14.5" x2="195" y2="48.5" stroke="#BF8F31" stroke-width="2"/>
<line x1="105" y1="14.5" x2="105" y2="48.5" stroke="#BF8F31" stroke-width="2"/>
</svg>
